
        <svg xmlns="http://www.w3.org/2000/svg" xmlns:xlink="http://www.w3.org/1999/xlink" version="1.1" width="3163.220935962011" 
        height="551.3815029935408" viewBox="0 0 3163.220935962011 551.3815029935408">
			
			<g transform="scale(8.161046798100541) translate(10, 10)">
				<defs id="SvgjsDefs1606"></defs><g id="SvgjsG1607" featureKey="symbolFeature-0" transform="matrix(1.4319180672581515,0,0,1.4319180672581515,-1.4491010335386605,-11.75891101537859)" fill="#111111"><g xmlns="http://www.w3.org/2000/svg"><polygon fill="#111111" points="19.937,10.508 17.653,8.212 1.012,24.792 17.647,41.428 19.94,39.135 5.603,24.794  "></polygon><polygon fill="#111111" points="29.714,10.508 44.046,24.794 29.711,39.135 32.004,41.428 48.637,24.792 32.001,8.212  "></polygon></g></g><g id="SvgjsG1608" featureKey="nameFeature-0" transform="matrix(0.9925978817580379,0,0,0.9925978817580379,87.36473701489342,-1.8714707036907363)" fill="#111111"><path d="M20.84 16.04 c-2.4 -2.52 -5.48 -4 -8.48 -4 l-11.72 0 l0 1.44 l11.72 0.04 c1.88 0 3.68 0.6 5.4 1.76 c3.36 2.36 5.6 6.6 5.6 10.72 c0 2.16 -0.48 4.16 -1.48 6.04 c-2 3.72 -6.04 6.44 -9.52 6.44 l-10.28 0 l0 -22.44 l9.96 0.04 c1.44 0 2.84 0.44 4.16 1.36 c2.68 1.8 4.44 5.24 4.44 8.56 c0 2.44 -1.04 4.96 -2.92 6.92 c-1.76 1.76 -3.88 2.88 -5.64 2.88 l-4.56 0 l0.04 -15.8 l-1.4 0 l-0.04 16.52 l0 0.72 l5.96 0 c2.2 0 4.76 -1.24 6.72 -3.32 c2.12 -2.28 3.28 -5.08 3.28 -7.92 c0 -2.88 -1.12 -5.76 -3.16 -8 c-2.2 -2.2 -4.6 -3.4 -6.88 -3.4 l-11.4 0 l0 25.36 l11.72 0 c2.88 0 6 -1.48 8.36 -4 c2.6 -2.68 4.04 -6.24 4.04 -9.96 s-1.36 -7.24 -3.92 -9.96 z M11.92 34.519999999999996 c1.12 0 2.28 -0.44 3.52 -1.28 c2.44 -1.72 4 -4.6 4 -7.28 c0 -1.44 -0.36 -2.84 -1.04 -4.2 c-1.4 -2.68 -3.92 -4.36 -6.48 -4.36 l-8.6 0.04 l0.04 19.88 l1.44 0 l0 -18.48 l7.12 -0.04 c0.92 0 1.88 0.36 2.88 1.04 c2.04 1.44 3.2 3.68 3.2 6.12 c0 1.64 -0.76 3.48 -2 4.88 s-2.76 2.24 -4.08 2.24 l-2.84 0 l0 1.44 l2.84 0 z M36.364999999999995 37.52 l1.76 0 l1.4 -3.36 l10.44 0.04 l2.56 5.8 l7.36 -0.04 l-12.6 -27.96 l-2.56 0 l-12.52 27.96 l7.8 0 l1.36 -3.2 l7.96 0 l-0.6 -1.36 l-8.24 0 l-1.28 3.16 l-4.76 0 l11.08 -25.2 l0.96 0 l11.12 25.2 l-4.24 0 l-2.56 -5.72 l-12.4 0 z M41.125 30.48 l4.88 -11.64 l8.2 18.64 l1.64 0 l-9.84 -21.92 l-7.2 16.16 l11.6 0 l-4.4 -9.72 l-3.04 7.32 l1.56 0 l1.48 -3.64 l2.2 4.8 l-7.08 0 z M86.93 28.6 l-16.36 -16.6 l-2 0 l19.8 20.12 l0 -17.32 l-1.44 0 l0 13.8 z M85.61 25.4 l0 -12 l4.08 0 l0 25.16 l-0.68 0 l-0.16 -0.16 l-18.32 -18.56 l0 20.16 l4.2 0 l0 -11.8 l-1.48 -1.52 l0 11.88 l-1.28 0 l0 -15.2 l16.6 16.64 l2.56 0 l0 -28 l-6.96 0 l0 11.84 z M69.21 40 l0 -23.4 l19.16 19.44 l0 -2.12 l-20.56 -20.76 l0 26.84 l1.4 0 z M99.735 12.079999999999998 l1.44 0 l0 26.48 l15.32 0 l0 -4 l-11.28 0 l0 -3.84 l1.44 0 l0 2.4 l11.28 0 l0 6.88 l-18.2 0 l0 -27.92 z M102.455 12.079999999999998 l15.28 0 l0 6.84 l-9.6 0 l0 -1.44 l8.16 0 l0 -3.96 l-12.4 0 l0 11.56 l9.32 0 l0 1.44 l-10.76 0 l0 -14.44 z M102.455 27.8 l12.16 0 l0 -4 l-9.4 0 l0 -9.08 l9.68 0 l0 1.44 l-8.24 0 l0 6.2 l9.4 0 l0 6.88 l-12.16 0 l0 6.64 l11.2 0 l0 1.44 l-12.64 0 l0 -9.52 z M127.82 12 l4.2 0 l0 25.32 l-1.44 0 l0 -23.88 l-1.32 0 l0 25.12 l4.04 0 l0 -26.56 l1.44 0 l0 28 l-6.92 0 l0 -28 z M144.145 11.96 l4.12 0 l0 25.4 l-1.48 0 l0 -23.96 l-1.2 0 l0 25.16 l13.16 0 l0 -3.84 l-6.52 0 l0 -1.44 l7.96 0 l0 6.72 l-16.04 0 l0 -28.04 z M149.585 11.96 l1.44 0 l0 23.92 l6.44 0 l0 1.48 l-7.88 0 l0 -25.4 z M177.19 40.08 c-1.48 0 -2.64 -1.2 -2.64 -2.64 c0 -1.4 1.16 -2.56 2.64 -2.56 c1.44 0 2.56 1.16 2.56 2.56 c0 1.44 -1.12 2.64 -2.56 2.64 z M177.19 36.04 c-0.8 0 -1.4 0.64 -1.4 1.4 c0 0.84 0.6 1.44 1.4 1.44 s1.44 -0.64 1.44 -1.44 c0 -0.76 -0.68 -1.4 -1.44 -1.4 z M176.51000000000002 37.44 c0 -0.32 0.32 -0.68 0.68 -0.68 s0.68 0.36 0.68 0.68 c0 0.36 -0.32 0.72 -0.68 0.72 s-0.68 -0.28 -0.68 -0.72 z M211.555 16.04 c-2.4 -2.52 -5.48 -4 -8.48 -4 l-11.72 0 l0 1.44 l11.72 0.04 c1.88 0 3.68 0.6 5.4 1.76 c3.36 2.36 5.6 6.6 5.6 10.72 c0 2.16 -0.48 4.16 -1.48 6.04 c-2 3.72 -6.04 6.44 -9.52 6.44 l-10.28 0 l0 -22.44 l9.96 0.04 c1.44 0 2.84 0.44 4.16 1.36 c2.68 1.8 4.44 5.24 4.44 8.56 c0 2.44 -1.04 4.96 -2.92 6.92 c-1.76 1.76 -3.88 2.88 -5.64 2.88 l-4.56 0 l0.04 -15.8 l-1.4 0 l-0.04 16.52 l0 0.72 l5.96 0 c2.2 0 4.76 -1.24 6.72 -3.32 c2.12 -2.28 3.28 -5.08 3.28 -7.92 c0 -2.88 -1.12 -5.76 -3.16 -8 c-2.2 -2.2 -4.6 -3.4 -6.88 -3.4 l-11.4 0 l0 25.36 l11.72 0 c2.88 0 6 -1.48 8.36 -4 c2.6 -2.68 4.04 -6.24 4.04 -9.96 s-1.36 -7.24 -3.92 -9.96 z M202.635 34.519999999999996 c1.12 0 2.28 -0.44 3.52 -1.28 c2.44 -1.72 4 -4.6 4 -7.28 c0 -1.44 -0.36 -2.84 -1.04 -4.2 c-1.4 -2.68 -3.92 -4.36 -6.48 -4.36 l-8.6 0.04 l0.04 19.88 l1.44 0 l0 -18.48 l7.12 -0.04 c0.92 0 1.88 0.36 2.88 1.04 c2.04 1.44 3.2 3.68 3.2 6.12 c0 1.64 -0.76 3.48 -2 4.88 s-2.76 2.24 -4.08 2.24 l-2.84 0 l0 1.44 l2.84 0 z M225.20000000000002 12.079999999999998 l1.44 0 l0 26.48 l15.32 0 l0 -4 l-11.28 0 l0 -3.84 l1.44 0 l0 2.4 l11.28 0 l0 6.88 l-18.2 0 l0 -27.92 z M227.92000000000002 12.079999999999998 l15.28 0 l0 6.84 l-9.6 0 l0 -1.44 l8.16 0 l0 -3.96 l-12.4 0 l0 11.56 l9.32 0 l0 1.44 l-10.76 0 l0 -14.44 z M227.92000000000002 27.8 l12.16 0 l0 -4 l-9.4 0 l0 -9.08 l9.68 0 l0 1.44 l-8.24 0 l0 6.2 l9.4 0 l0 6.88 l-12.16 0 l0 6.64 l11.2 0 l0 1.44 l-12.64 0 l0 -9.52 z M253.92500000000004 13.48 l4.52 0 l6.96 14.48 l0.84 -1.72 l-6.88 -14.24 l-7.8 0 l13.48 28 l0.68 0 l12.84 -26.52 l1.4 0 l-12.88 26.52 l1.64 0 l13.6 -28 l-4.68 0 l-12.24 25.2 z M265.44500000000005 34.44 l10.84 -22.44 l-1.68 0 l-9.16 19.04 l-7.88 -16.28 l-1.64 0 z"></path></g>
			</g>
		</svg>
	